<svg id="layer" xmlns="http://www.w3.org/2000/svg" viewBox="0 0 500 500"><title>pattern58</title><path d="M155.84,334.19a1.63,1.63,0,0,1-1.87-.6c-.57-.74-.66-1.87,0-2.27,2.91-1.85,4.44-5.44,8-6.38a3.68,3.68,0,0,1,2.34.34,1,1,0,0,1,.14,1.7C161.58,329.22,159.65,332.53,155.84,334.19Z"/><path d="M307.88,36.15c-2.66-4.07-6.57-4.41-10.22-5.34-1.29-.34-3.48-.18-2.65-2.49.64-1.79,2.49-1.56,3.82-.92a32.87,32.87,0,0,0,6,2.05C307.8,30.25,309.05,32.35,307.88,36.15Z"/><path d="M446.18,193c2.9-1.51,7-1.73,5.17-6.29-.22-.53.25-1.57,1-1.37,2.41.64,2.86,3,3.7,4.88.76,1.67.32,3.46-1.78,3.85C451.74,194.52,449.11,194.84,446.18,193Z"/><path d="M129.08,482c1.8.5,2.32,1.8,2.78,3,.65,1.67,1,3.47,1.61,5.15.42,1.12,2.31,2.14.65,3.32s-2.91-.45-3.52-1.66a47.58,47.58,0,0,1-2.86-7.33A1.83,1.83,0,0,1,129.08,482Z"/><path d="M185.47,341.6c-.07-1.39,0-2.84,1.2-2.62,3.47.6,3.26,4.21,4.64,6.49.7,1.17-.7,2.37-1.88,2.28C185.23,347.45,186.94,343.33,185.47,341.6Z"/><path d="M375.6,170a22.12,22.12,0,0,1,3.27-.52,1.78,1.78,0,0,1,1.76,2c0,1-.85,1.26-1.73,1.3A55.74,55.74,0,0,1,373,173c-1.17-.07-3.05.07-3-1.78.07-1.67,1.66-1.79,3-1.7A25.21,25.21,0,0,1,375.6,170Z"/><path d="M82.66,438.6c-3.78,2-6.86,1.58-9.49-.11-1.59-1-1.22-3.15.14-5.42C74.88,437.26,78.79,437.23,82.66,438.6Z"/><path d="M373.76,119.88c-1.83-.85-4.66,1.28-4.86-1.2-.18-2.13,2.81-1.82,4.45-1.69,2.14.18,6-1.47,6.1.8C379.51,121.19,375.48,118.67,373.76,119.88Z"/><path d="M470.09,162.1c.24,2.11-.78,2.7-2.31,2.54-1.21-.13-3.32.16-3.15-1.39s1.48-3.69,2.76-4.1C469.47,158.5,469.28,161.19,470.09,162.1Z"/><path d="M319.06,185.65c-1.83-.09-5,1.36-5-1.08,0-2.79,3.36-1.25,5.27-1.56a6.59,6.59,0,0,1,2,.05c1.07.15,2.69-.09,2.55,1.57s-1.73,1-2.78,1C320.38,185.68,319.72,185.65,319.06,185.65Z"/><path d="M325.51,313.4c-2-.78-1.68-2.71-2.8-3.71-.94-.86-3.23-1.79-1.42-3.33,1.37-1.16,2.58.8,3.62,1.74C326.48,309.51,326.46,311.25,325.51,313.4Z"/><path d="M253.12,62.22c-.71-2.38.68-4.36-.62-6.24-.92-1.33.25-1.7,1.32-1.71s2.69-.12,2.22,1.67C255.51,58,255.17,60.17,253.12,62.22Z"/><path d="M93.92,279.15l-5.07-3.21c-.82-.52-1.88-1-1.06-2.2a1.64,1.64,0,0,1,2.24-.22C91.88,274.63,93.81,275.76,93.92,279.15Z"/><path d="M245,414.11c-.39-3.85,1.72-5.37,4-6.8C249.11,410.06,247.45,411.83,245,414.11Z"/><path d="M299.64,220.49c-1.2-.07-2.88.08-2.75-1.37.19-2.21,2.35-1.79,3.87-1.92,1.09-.08,2.8-.08,2.68,1.34C303.26,220.8,301,220.07,299.64,220.49Z"/><path d="M309.78,112.19c1.49-3.08,2.47-5.14,3.49-7.17.46-.9,1.09-2,2.25-1.21s.56,1.91,0,2.65C314.09,108.24,313.13,110.46,309.78,112.19Z"/><path d="M323.05,222.53c-.08-1.93-3.05-2.77-1.8-5,.46-.84,1.44-.68,2.13-.13C325.37,219,324.89,220.69,323.05,222.53Z"/><path d="M166.21,403.78c1.15.79,2.72,1.42,2.64,3.18,0,1.07-1.14,1.11-2,.88-1.36-.38-2.48-1.16-2.48-2.73C164.4,404.14,165.16,403.74,166.21,403.78Z"/><path d="M274.07,100.4c-.17,1-.45,2.21-1.79,1.6s-3.26-.62-3.23-2.57c0-1.23,1.35-1.23,2.34-1.25C272.88,98.16,274,98.61,274.07,100.4Z"/><path d="M44.5,94.78l-8.08.94C38.76,93.09,41.58,93.49,44.5,94.78Z"/><path d="M133.33,283.73a1.45,1.45,0,0,1-1.41,1.7,2.62,2.62,0,0,1-2.94-2.58c-.11-.86.26-1.87,1.19-1.76A4.22,4.22,0,0,1,133.33,283.73Z"/><path d="M114.69,252.89c1.28-1.94,2.83-1.82,4.39-1a1,1,0,0,1,0,1.66A3.26,3.26,0,0,1,114.69,252.89Z"/><path d="M239.73,63.11c0,1.6-1,2.12-2.2,2.25s-2.64.44-2.66-1.23c0-1.39,1.55-1.46,2.59-1.89S239.36,62,239.73,63.11Z"/><path d="M292.55,82c-.15,1.37-.75,2.44-1.78,2.08s-2.84-.24-2.95-2c-.05-.92.72-1.38,1.6-1.47A3.07,3.07,0,0,1,292.55,82Z"/><path d="M151.67,37.38c-.4,4-3.11,2.87-5.86,3.22C147.09,37.37,150.5,39.46,151.67,37.38Z"/><path d="M304.06,52.18a2.1,2.1,0,0,1,2,2.72c-.13.82-.55,1.75-1.54,1.44-1.23-.38-2.46-1.1-2.49-2.63C302,52.45,303,52.15,304.06,52.18Z"/><path d="M383,433.3c.2,2.24,1.59,3.83-.4,5.28a1.36,1.36,0,0,1-1.29-.18C380.2,436.48,381.21,435.15,383,433.3Z"/><path d="M347.62,73.46c-.26,1.42-.77,2.44-2.25,2.25-1.05-.13-2-.71-1.78-1.9s.78-2.26,2.25-2.19C347.06,71.68,347.42,72.6,347.62,73.46Z"/><path d="M155.49,153.14a2,2,0,0,1-2.3,2c-1,0-2.6.94-2.84-.66s1.52-1.81,2.75-2C153.93,152.37,155.06,151.75,155.49,153.14Z"/><path d="M245.22,129c-2.05,1.67-3.73,1.43-5.07-.4-.38-.52-.59-1.51.07-1.72C242.36,126.22,243.47,128.36,245.22,129Z"/><path d="M197.57,396.86c-2.27-.9-2.7-2.21-2.32-3.82.08-.33.86-.85,1-.75C198,393.26,198.07,394.78,197.57,396.86Z"/><path d="M134.27,398.9c.06.88-.14,1.69-1.14,1.8a1.75,1.75,0,0,1-2-1.59c-.18-1.07.18-2,1.36-2.14S133.93,398,134.27,398.9Z"/><path d="M259.33,305.76c-.14,1-.68,2.13-1.4,1.53a9.53,9.53,0,0,1-2.29-3.65c-.27-.63.53-1.29,1.23-1.07A3.24,3.24,0,0,1,259.33,305.76Z"/><path d="M401,333.08a1.63,1.63,0,0,1,1.79,1.51c.14,1.09-.23,2-1.44,2.06-1,.09-1.46-.58-1.59-1.46A1.78,1.78,0,0,1,401,333.08Z"/><path d="M299,233.58c-2.15,1.54-4,1.63-5.76.53a.94.94,0,0,1,.24-1.61A4.65,4.65,0,0,1,299,233.58Z"/><path d="M89.86,158.38c1.1-2.46,2.7-1.58,4.92-1.67C93.09,159,91.76,159.23,89.86,158.38Z"/><path d="M361.32,390.26a2.06,2.06,0,0,1-2.25,1.54c-1.16-.14-1.84-.88-1.5-2a1.86,1.86,0,0,1,2.39-1.19C360.8,388.75,361.47,389.23,361.32,390.26Z"/><path d="M381.92,227.38c-1.05.14-1.48-.42-1.48-1.37a2.07,2.07,0,0,1,1.39-2.27c1.21-.32,1.75.51,1.74,1.63A1.84,1.84,0,0,1,381.92,227.38Z"/><path d="M277.06,321.45c-.8-.15-1.95-.18-1.67-1.31.38-1.48,1.85-1.12,2.95-1.14.67,0,2.09-.45,1.65.92C279.64,321,278.32,321.47,277.06,321.45Z"/><path d="M191.83,327c1.06.49,2,1.24,1.82,2.58-.09.78-.85,1-1.54.73a2.3,2.3,0,0,1-1.66-2.25C190.44,327.31,191,327,191.83,327Z"/><path d="M425.51,79.75c.92.29,1.88.65,2.06,1.73A1.2,1.2,0,0,1,426.19,83a2,2,0,0,1-2-2.2C424.18,80,424.76,79.71,425.51,79.75Z"/><path d="M393.89,369.16c1.2-2.57,3.08-2.43,4.69-2.81C397.43,367.43,396.64,369,393.89,369.16Z"/><path d="M323.11,438.9c-1.22-.1-2.1-.29-2.2-1.26-.09-.77.64-1.08,1.33-1,.93.07,2.09.12,2,1.44C324.24,438.41,323.36,438.73,323.11,438.9Z"/><path d="M286.81,281.42c-1,1.62-2.3,2.49-4.93,2.33C283.62,282.17,284.91,281.25,286.81,281.42Z"/><path d="M192.75,261.79A1,1,0,0,1,194,262.9c0,.72-.35,1.36-1.13,1.33a1.46,1.46,0,0,1-1-.89A1.21,1.21,0,0,1,192.75,261.79Z"/><path d="M199.43,275.9c1.08,1.57,1.36,2.63.37,3.83C198.33,278.8,198.8,277.65,199.43,275.9Z"/><path d="M240.7,325.1c-.19-.35-.72-.87-.73-1.39,0-.95.66-1.56,1.59-1.11a2,2,0,0,1,.79,1.54C242.37,324.84,241.81,325.25,240.7,325.1Z"/><path d="M55.75,427.88c0,.67-.35,1.24-1.07,1.11a2.17,2.17,0,0,1-1.42-1.07c-.28-.71.3-1.19,1-1.22A1.35,1.35,0,0,1,55.75,427.88Z"/><path d="M72.34,443.2c-2.27-.95-2.11-2.22-2.44-3.66C71.86,440.22,72.58,441.15,72.34,443.2Z"/><path d="M216.27,398a1,1,0,0,1,1,1.33,1.22,1.22,0,0,1-1.23,1.23c-.8,0-1.12-.58-1-1.31A1.33,1.33,0,0,1,216.27,398Z"/><path d="M107,47.84c-.7-.07-1.2-.42-1.23-1.14a1.1,1.1,0,0,1,1.17-1.18c.87,0,1.59.3,1.45,1.32C108.27,47.54,107.67,47.84,107,47.84Z"/><path d="M141,237.35a1.54,1.54,0,0,1-1.78,1.32,1,1,0,0,1-1-1.34,1.78,1.78,0,0,1,1.78-1.44C140.86,235.92,141,236.65,141,237.35Z"/><path d="M210.88,98.36c.69,0,1.32.18,1.41,1a1.19,1.19,0,0,1-1.07,1.33c-.78.16-1.21-.35-1.36-1S210.17,98.48,210.88,98.36Z"/><path d="M245.06,383.12a2.27,2.27,0,0,1,2.21,2.08c0,.13-.78.68-.94.59C245.37,385.22,244.46,384.53,245.06,383.12Z"/><path d="M326.89,349.05c.87-2.29,2.26-2.69,4.37-3.53C330.34,348,329,348.52,326.89,349.05Z"/><path d="M370.67,362.27c-.83-.08-1.22-.61-.92-1.33a2.61,2.61,0,0,1,1.23-1.41c.81-.28,1.1.48,1.14,1.16A1.37,1.37,0,0,1,370.67,362.27Z"/><path d="M233.13,276.71a1.37,1.37,0,0,1,1.53,1.42c0,.75-.55,1.14-1.21,1.21-.82.09-1.68-.08-1.76-1.11S232.24,276.83,233.13,276.71Z"/><path d="M301.88,255.86a4.86,4.86,0,0,1,3.78-3.44C305.38,254.77,304.11,255.41,301.88,255.86Z"/><path d="M271.89,366.89c.05-2.26,1.15-2.89,2.83-3.77A4.11,4.11,0,0,1,271.89,366.89Z"/><path d="M33,460.34c-.78-1.35-.63-2.79.67-2.87,1.88-.12.72,1.27.42,2C33.89,459.83,33.36,460,33,460.34Z"/><path d="M55.43,160.14c-.32-.16-1-.31-1.08-.59-.2-.93.61-1,1.25-1,.44,0,1.21.23,1.25.47C57,159.92,56.21,159.94,55.43,160.14Z"/><path d="M365.09,280.47c1,.07,1.61.34,1.64,1.08s-.55,1.09-1.21,1.15c-.85.08-1.67-.18-1.48-1.2C364.12,281.05,364.84,280.71,365.09,280.47Z"/><path d="M340.75,418.86c-.23.25-.48.74-.84.85a1,1,0,0,1-1.32-.92,1.32,1.32,0,0,1,.74-1C340,417.55,340.54,418,340.75,418.86Z"/><path d="M121.47,166.93c-1.06-.06-1.62-.4-1.38-1.18a1.29,1.29,0,0,1,1.06-.69,5.5,5.5,0,0,1,1.55.88Z"/><path d="M196.61,36.79c-.6-.2-1.29-.44-1.19-1.2a1.19,1.19,0,0,1,1.42-1,1.16,1.16,0,0,1,1.1,1.3C197.92,36.75,197.36,36.94,196.61,36.79Z"/><path d="M240.9,103.09l-.64,1.08c-.22-.35-.58-.68-.62-1s.26-.74.4-1.11Z"/><path d="M415.89,222.83c.34.27,1,.55,1.25,1a.9.9,0,0,1-.74,1.4,2.3,2.3,0,0,1-1.51-1C414.42,223.62,414.85,223.12,415.89,222.83Z"/><path d="M404.28,349.64a5.26,5.26,0,0,1-.73-1.37c-.13-.52.3-1,.81-.78a2.64,2.64,0,0,1,1.13,1.39C405.64,349.35,405.22,349.77,404.28,349.64Z"/><path d="M237.46,324c-.75.07-1.18-.25-.92-.79a3.41,3.41,0,0,1,1.3-1.31c.17-.1,1,.33,1,.56C238.91,323.43,238,323.65,237.46,324Z"/><path d="M119.15,141a4.11,4.11,0,0,1-3.06,2.75A4.23,4.23,0,0,1,119.15,141Z"/><path d="M176.19,160.18c.46.52,1.16.94,1.21,1.42.08.91-.71.92-1.37.7s-1.29-.56-1.09-1.34C175,160.67,175.63,160.51,176.19,160.18Z"/><path d="M286.4,375.8c-.75,2.67-1.85,2.71-2.68,3.36C283.11,376.88,284.8,377.25,286.4,375.8Z"/><path d="M290.1,453.35c-.33-.24-.92-.45-1-.77-.2-.88.55-1.05,1.18-1,.39,0,1,.35,1.07.64C291.58,453.12,290.79,453.15,290.1,453.35Z"/><path d="M233.84,473.25c-.37-.46-.84-.78-.84-1.12a1.38,1.38,0,0,1,.63-1.1c.76-.27,1.23.24,1.12,1C234.7,472.39,234.24,472.72,233.84,473.25Z"/><path d="M189.1,68.7c-1.06,1-2.58,1-2.89.15-.52-1.48,1-1.07,1.78-.94C188.37,68,188.7,68.4,189.1,68.7Z"/><path d="M69.73,435.17c-.4.3-.73.67-.83.62A3,3,0,0,1,68,435s.44-.62.53-.58A7.32,7.32,0,0,1,69.73,435.17Z"/><path d="M233.1,271.34c-.44-.42-1-.68-1-1a.92.92,0,0,1,1.12-1.16,1.28,1.28,0,0,1,.8,1C234,270.48,233.49,270.84,233.1,271.34Z"/><path d="M392.1,97.34c-.73-2.18-1-3-1.47-4.38C392.21,93.8,392.38,94.72,392.1,97.34Z"/><path d="M280.21,155.13c.27.71-.12,1-.6,1.07a1.58,1.58,0,0,1-1.91-.92c-.27-.6.2-.87.64-1A1.64,1.64,0,0,1,280.21,155.13Z"/><path d="M450.72,113.33c.44.57.85.91,1,1.32a.67.67,0,0,1-.8.88,1.46,1.46,0,0,1-.9-1C449.92,114.26,450.38,113.86,450.72,113.33Z"/><path d="M85.34,257.6a10.61,10.61,0,0,1-2,.74c-.43,0-1.14,0-1.29-.22-.47-.79.23-1.15.84-1.25C83.31,256.8,83.75,257.1,85.34,257.6Z"/><path d="M416.93,137.21c.11.8-.32,1-.8,1a1.17,1.17,0,0,1-.82-.31.57.57,0,0,1,.46-1A3.21,3.21,0,0,1,416.93,137.21Z"/><path d="M274.86,38c-.24-.19-.78-.41-.85-.73-.19-.86.53-1.07,1.16-1,.39,0,1.06.35,1.08.6C276.35,37.64,275.67,37.85,274.86,38Z"/><path d="M205,194.06c-.52.41-.86.89-1.22.91s-.86-.59-.82-.85a1.35,1.35,0,0,1,.88-.93C204.14,193.14,204.53,193.67,205,194.06Z"/><path d="M184.92,305.71l.55.64-1.07.49c-.09-.26-.32-.6-.23-.77S184.66,305.82,184.92,305.71Z"/><path d="M159.34,355.6c.15.24.43.49.39.68s-.34.43-.53.65c-.14-.22-.42-.47-.38-.66S159.15,355.83,159.34,355.6Z"/><path d="M167.64,128.86c-.27.16-.66.57-1,.55-.55,0-.79-.54-.5-1.06a1.31,1.31,0,0,1,.76-.57C167.48,127.68,167.75,128.05,167.64,128.86Z"/><path d="M216.94,449.89c-.23.2-.46.55-.67.54a.62.62,0,0,1-.56-1,.82.82,0,0,1,.77-.31C216.69,449.23,216.78,449.62,216.94,449.89Z"/><path d="M31.39,68.36c-.28.21-.48.49-.72.53-.53.07-.91-.22-.76-.79.05-.19.5-.38.75-.36S31.07,68.08,31.39,68.36Z"/><path d="M111.64,192l-.63-.69a9,9,0,0,1,1-.78s.51.47.48.52A8,8,0,0,1,111.64,192Z"/><path d="M131.85,405c-.19.18-.38.5-.57.49a.71.71,0,0,1-.5-.53c0-.19.33-.37.52-.56Z"/><path d="M79,195.87c-.22.2-.46.56-.68.55-.61,0-.79-.49-.54-1a.89.89,0,0,1,.79-.35C78.73,195.15,78.81,195.59,79,195.87Z"/><path d="M195.69,241.38a9.31,9.31,0,0,1-1.38,1.19c-.47.27-1,0-.73-.54a3.79,3.79,0,0,1,1.35-1.17C195,240.82,195.32,241.12,195.69,241.38Z"/><path d="M131.88,257.59l.51.68-1.09.46c-.08-.27-.3-.62-.2-.79S131.6,257.71,131.88,257.59Z"/><path d="M360.59,301.57l-.33,1a5.16,5.16,0,0,1-1.1-.48,1.32,1.32,0,0,1,.23-.74A6.12,6.12,0,0,1,360.59,301.57Z"/><path d="M332.68,436.11c-.19-.21-.56-.43-.57-.66a.64.64,0,0,1,1-.63.85.85,0,0,1,.39.76C333.4,435.8,333,435.92,332.68,436.11Z"/><path d="M311.66,132.47c-.06-.3-.23-.64-.13-.87s.48-.25.74-.37c.06.29.24.63.15.84S311.94,132.34,311.66,132.47Z"/><path d="M300.49,178.81c-.21.23-.39.59-.61.62a.59.59,0,0,1-.7-.82.82.82,0,0,1,.7-.41C300.11,178.24,300.28,178.59,300.49,178.81Z"/><path d="M426.68,155.77c-.27.06-.67.25-.74.16a1.33,1.33,0,0,1-.3-.86c0-.46.38-.54.67-.18A3.48,3.48,0,0,1,426.68,155.77Z"/><path d="M278.92,253.67l.54.6a3.27,3.27,0,0,1-.64.28c-.08,0-.32-.22-.3-.26A3.83,3.83,0,0,1,278.92,253.67Z"/><path d="M97,396.86a4,4,0,0,1-.7.39S96,397,96,396.93a4.69,4.69,0,0,1,.42-.67Z"/><path d="M72.36,220.6l-.8-.09c.06-.14.12-.4.19-.41a4.22,4.22,0,0,1,.79.07Z"/><path d="M226.93,134.31c-.23-.59-.57-1.05-.46-1.32s.65-.49,1-.73c.19.36.6.76.53,1.05S227.42,133.88,226.93,134.31Z"/><path d="M75,346a1.61,1.61,0,0,1-1,1.68c-.86.38-2,.21-2.22-.5-1.11-3.27-4.23-5.61-4.29-9.3a3.63,3.63,0,0,1,.87-2.19,1,1,0,0,1,1.69.27C71.55,339.27,74.31,341.92,75,346Z"/><path d="M97.51,353.74c-.07-1.39,0-2.84,1.21-2.62,3.46.6,3.26,4.21,4.64,6.49.7,1.17-.7,2.37-1.88,2.28C97.28,359.59,99,355.47,97.51,353.74Z"/><path d="M359.64,403.54a21,21,0,0,1,.42,3.28,1.78,1.78,0,0,1-2,1.71c-1,0-1.24-.89-1.26-1.77a55.79,55.79,0,0,1-.08-5.92c.1-1.16,0-3,1.85-2.91,1.68.12,1.75,1.71,1.62,3.07A21.27,21.27,0,0,1,359.64,403.54Z"/><path d="M409.76,403.06c.91-1.8-1.14-4.69,1.34-4.82,2.13-.12,1.75,2.86,1.56,4.49-.23,2.14,1.31,6.1-1,6.08C408.3,408.78,410.93,404.82,409.76,403.06Z"/><path d="M364.93,498.2c-2.12.19-2.69-.85-2.48-2.37.16-1.21-.07-3.33,1.47-3.12s3.66,1.59,4,2.88C368.54,497.69,365.86,497.42,364.93,498.2Z"/><path d="M61.87,107.62c-2-.78-1.68-2.7-2.79-3.71-.95-.85-3.24-1.79-1.43-3.32,1.37-1.16,2.58.8,3.62,1.73C62.85,103.73,62.83,105.47,61.87,107.62Z"/><path d="M12.92,295.57l-5.07-3.22c-.82-.52-1.88-1-1.06-2.2A1.65,1.65,0,0,1,9,289.93C10.88,291,12.81,292.17,12.92,295.57Z"/><path d="M36,14.72c-1.2-.08-2.87.08-2.75-1.38.19-2.21,2.35-1.79,3.87-1.91,1.09-.09,2.8-.09,2.69,1.34C39.62,15,37.36,14.3,36,14.72Z"/><path d="M419.21,339.32c3,1.58,5.07,2.61,7.07,3.69.89.48,1.92,1.14,1.14,2.28s-1.91.51-2.64-.1C423,343.74,420.84,342.72,419.21,339.32Z"/><path d="M59.41,16.75c-.08-1.92-3-2.77-1.8-5,.46-.83,1.45-.68,2.14-.13C61.73,13.19,61.26,14.91,59.41,16.75Z"/><path d="M432,304c-1-.2-2.21-.51-1.56-1.83s.71-3.25,2.66-3.17c1.23.06,1.19,1.39,1.18,2.38C434.25,302.82,433.76,304,432,304Z"/><path d="M45.37,295.87a1.44,1.44,0,0,1-1.41,1.7A2.61,2.61,0,0,1,41,295c-.11-.86.26-1.87,1.19-1.76A4.19,4.19,0,0,1,45.37,295.87Z"/><path d="M399.68,121.66c1.28-1.94,2.83-1.82,4.39-1a1,1,0,0,1,0,1.65A3.26,3.26,0,0,1,399.68,121.66Z"/><path d="M449.88,322.93c-1.36-.19-2.42-.82-2-1.84s.31-2.83,2.08-2.89c.92,0,1.36.75,1.43,1.63A3.08,3.08,0,0,1,449.88,322.93Z"/><path d="M119.38,227.53c.19,2.24,1.58,3.83-.41,5.28a1.34,1.34,0,0,1-1.29-.19C116.57,230.71,117.57,229.37,119.38,227.53Z"/><path d="M456.89,378.21c-1.42-.3-2.42-.84-2.19-2.31.15-1,.76-2,1.95-1.73s2.24.84,2.12,2.31C458.68,377.7,457.75,378,456.89,378.21Z"/><path d="M440.48,21.91a2,2,0,0,1-2.3,2c-1,0-2.6.93-2.84-.67s1.52-1.8,2.75-2C438.92,21.14,440.05,20.52,440.48,21.91Z"/><path d="M404.15,274.33c-1.61-2.1-1.32-3.77.54-5.06.53-.37,1.52-.55,1.72.11C407,271.54,404.86,272.6,404.15,274.33Z"/><path d="M137.33,127.3a1.64,1.64,0,0,1,1.79,1.52c.14,1.08-.23,2-1.44,2.06-1,.08-1.46-.59-1.59-1.47A1.78,1.78,0,0,1,137.33,127.3Z"/><path d="M35.38,27.8c-2.15,1.54-4,1.64-5.76.54a.94.94,0,0,1,.25-1.62A4.66,4.66,0,0,1,35.38,27.8Z"/><path d="M374.85,27.15c1.1-2.46,2.7-1.57,4.92-1.67C378.08,27.76,376.75,28,374.85,27.15Z"/><path d="M97.68,184.48A2.05,2.05,0,0,1,95.43,186c-1.16-.14-1.83-.89-1.5-2a1.87,1.87,0,0,1,2.39-1.2C97.16,183,97.83,183.46,97.68,184.48Z"/><path d="M118.28,21.6c-1,.14-1.47-.42-1.48-1.37A2.08,2.08,0,0,1,118.19,18c1.21-.31,1.75.52,1.74,1.64A1.83,1.83,0,0,1,118.28,21.6Z"/><path d="M13.42,115.68c-.8-.16-1.95-.19-1.66-1.32.37-1.48,1.85-1.12,2.94-1.14.67,0,2.09-.44,1.65.93C16,115.24,14.69,115.7,13.42,115.68Z"/><path d="M103.88,339.17c1.06.49,2,1.24,1.82,2.58-.09.78-.85,1-1.54.73a2.3,2.3,0,0,1-1.67-2.25C102.49,339.45,103,339.09,103.88,339.17Z"/><path d="M448.47,455.89c-.32.92-.71,1.87-1.79,2a1.2,1.2,0,0,1-1.45-1.42,2,2,0,0,1,2.25-2C448.23,454.56,448.52,455.15,448.47,455.89Z"/><path d="M130.25,163.38c1.2-2.56,3.08-2.42,4.7-2.8C133.79,161.65,133,163.22,130.25,163.38Z"/><path d="M59.47,233.13c-1.22-.11-2.1-.3-2.2-1.26-.09-.78.65-1.09,1.33-1,.94.07,2.09.11,2,1.43C60.6,232.63,59.72,233,59.47,233.13Z"/><path d="M23.17,75.64c-1,1.62-2.3,2.49-4.93,2.34C20,76.39,21.27,75.47,23.17,75.64Z"/><path d="M111.75,278.2a1,1,0,0,1,1.25,1.11c0,.72-.35,1.37-1.13,1.33a1.44,1.44,0,0,1-1-.89A1.22,1.22,0,0,1,111.75,278.2Z"/><path d="M111.48,288c1.08,1.57,1.35,2.63.36,3.83C110.37,290.94,110.84,289.79,111.48,288Z"/><path d="M152.75,337.24c-.2-.35-.72-.87-.73-1.39,0-1,.66-1.56,1.59-1.11a2,2,0,0,1,.79,1.54C154.42,337,153.85,337.39,152.75,337.24Z"/><path d="M426,106.12a1.54,1.54,0,0,1-1.78,1.32c-.78,0-1.23-.55-1-1.34a1.8,1.8,0,0,1,1.78-1.44C425.85,104.7,426,105.42,426,106.12Z"/><path d="M63.25,143.27c.87-2.28,2.26-2.69,4.37-3.52C66.7,142.22,65.39,142.75,63.25,143.27Z"/><path d="M107,156.49c-.84-.08-1.22-.61-.93-1.32a2.59,2.59,0,0,1,1.24-1.41c.8-.29,1.09.48,1.13,1.15A1.36,1.36,0,0,1,107,156.49Z"/><path d="M38.24,50.08A4.88,4.88,0,0,1,42,46.65C41.74,49,40.48,49.63,38.24,50.08Z"/><path d="M8.25,161.11c.05-2.26,1.15-2.89,2.83-3.76A4.09,4.09,0,0,1,8.25,161.11Z"/><path d="M340.42,28.92c-.32-.17-1-.31-1.08-.6-.2-.93.61-1,1.25-1,.44,0,1.2.24,1.25.48C342,28.69,341.2,28.71,340.42,28.92Z"/><path d="M101.46,74.7c1,.07,1.61.33,1.63,1.07s-.55,1.09-1.21,1.16c-.85.08-1.67-.18-1.48-1.2C100.48,75.27,101.2,74.93,101.46,74.7Z"/><path d="M77.11,213.08c-.23.25-.47.74-.83.85A1,1,0,0,1,75,213a1.34,1.34,0,0,1,.75-1C76.4,211.78,76.91,212.17,77.11,213.08Z"/><path d="M406.46,35.71c-1.07-.06-1.62-.4-1.38-1.18a1.3,1.3,0,0,1,1.06-.7,5.71,5.71,0,0,1,1.54.88Z"/><path d="M430.19,270.72l-1.06-.67c.35-.21.7-.56,1.07-.59s.73.28,1.09.43Z"/><path d="M152.25,17.06c.34.27,1,.54,1.25,1s.06,1.42-.74,1.39a2.24,2.24,0,0,1-1.51-1C150.78,17.84,151.21,17.34,152.25,17.06Z"/><path d="M140.64,143.87a5.67,5.67,0,0,1-.73-1.38c-.13-.51.3-1.05.81-.78a2.63,2.63,0,0,1,1.13,1.39C142,143.57,141.58,144,140.64,143.87Z"/><path d="M404.14,9.78a4.07,4.07,0,0,1-3.06,2.75A4.25,4.25,0,0,1,404.14,9.78Z"/><path d="M461.18,29c.46.52,1.16.94,1.2,1.42.09.91-.7.93-1.36.71s-1.29-.57-1.1-1.34C460,29.44,460.62,29.28,461.18,29Z"/><path d="M22.76,170c-.75,2.66-1.85,2.7-2.67,3.35C19.48,171.1,21.16,171.48,22.76,170Z"/><path d="M26.46,247.58c-.33-.24-.91-.45-1-.78-.2-.87.55-1.05,1.18-1,.39,0,1,.35,1.08.65C27.94,247.35,27.15,247.37,26.46,247.58Z"/><path d="M471.08,428.31,475.5,427C474.61,428.51,473.69,428.65,471.08,428.31Z"/><path d="M377.1,308.59c-.72.25-1-.15-1.06-.63a1.57,1.57,0,0,1,1-1.88c.61-.26.87.22,1,.66A1.64,1.64,0,0,1,377.1,308.59Z"/><path d="M414.21,480.18c-.59.42-.93.82-1.35.92a.67.67,0,0,1-.86-.82,1.5,1.5,0,0,1,1-.88C413.29,479.35,413.69,479.83,414.21,480.18Z"/><path d="M370.33,126.38a11.08,11.08,0,0,1-2,.73c-.43,0-1.14,0-1.29-.22-.47-.79.23-1.15.84-1.25C368.3,125.58,368.74,125.87,370.33,126.38Z"/><path d="M391.26,445.75c-.8.08-.95-.35-.93-.83a1.13,1.13,0,0,1,.32-.81c.5-.33.9,0,.94.49A3.24,3.24,0,0,1,391.26,445.75Z"/><path d="M396.63,60.73,396,60a7.8,7.8,0,0,1,1-.77s.51.46.48.51A8.09,8.09,0,0,1,396.63,60.73Z"/><path d="M363.94,64.65c-.22.19-.46.55-.68.54-.61,0-.8-.48-.54-1a.89.89,0,0,1,.79-.35C363.71,63.93,363.8,64.36,363.94,64.65Z"/><path d="M416.87,126.37l.51.67-1.09.46c-.08-.27-.3-.62-.21-.79S416.59,126.48,416.87,126.37Z"/><path d="M97,95.79l-.33,1a6,6,0,0,1-1.1-.48,1.3,1.3,0,0,1,.23-.74A5.43,5.43,0,0,1,97,95.79Z"/><path d="M69,230.34c-.19-.22-.56-.44-.56-.67,0-.61.45-.83,1-.63a.86.86,0,0,1,.38.76C69.76,230,69.36,230.14,69,230.34Z"/><path d="M398.88,340.65c.3,0,.65-.22.87-.11s.24.49.35.75c-.28,0-.63.23-.84.12S399,340.93,398.88,340.65Z"/><path d="M352.87,328.21c-.22-.22-.58-.4-.61-.63-.06-.56.33-.84.85-.67a.81.81,0,0,1,.38.71C353.45,327.85,353.1,328,352.87,328.21Z"/><path d="M38.44,399.94a1.64,1.64,0,0,1,1.79,1.52c.14,1.08-.23,2-1.44,2.06-1,.08-1.46-.59-1.58-1.47A1.78,1.78,0,0,1,38.44,399.94Z"/><path d="M2.57,347.34c1,.07,1.61.33,1.63,1.07S3.65,349.5,3,349.57c-.85.08-1.67-.18-1.48-1.2C1.59,347.91,2.31,347.57,2.57,347.34Z"/><path d="M41.75,416.51a5.67,5.67,0,0,1-.73-1.38c-.13-.51.3-1.05.81-.78A2.63,2.63,0,0,1,43,415.74C43.12,416.21,42.7,416.63,41.75,416.51Z"/><path d="M56.68,406.18c3,1.58,5.07,2.61,7.07,3.7.89.48,1.92,1.14,1.15,2.27s-1.92.52-2.65-.09C60.51,410.6,58.32,409.59,56.68,406.18Z"/><path d="M69.45,370.82c-1-.2-2.2-.51-1.56-1.84s.72-3.24,2.66-3.16c1.23.05,1.19,1.39,1.18,2.38C71.72,369.69,71.23,370.81,69.45,370.82Z"/><path d="M87.35,389.79c-1.36-.19-2.42-.82-2-1.84s.32-2.82,2.08-2.88c.93,0,1.36.75,1.43,1.63A3.07,3.07,0,0,1,87.35,389.79Z"/><path d="M41.63,341.19c-1.61-2.09-1.33-3.76.54-5.06.52-.36,1.52-.54,1.71.12C44.5,338.41,42.33,339.46,41.63,341.19Z"/><path d="M67.66,337.58l-1.06-.67c.36-.21.7-.55,1.07-.58s.73.27,1.1.43Z"/><path d="M14.57,375.45c-.72.25-1-.15-1.06-.62a1.59,1.59,0,0,1,1-1.89c.61-.25.86.22,1,.67A1.63,1.63,0,0,1,14.57,375.45Z"/><path d="M36.36,407.51c.3-.05.65-.21.87-.11s.24.49.35.75c-.29.06-.64.23-.84.13S36.48,407.79,36.36,407.51Z"/><path d="M155.84,481.7a1.63,1.63,0,0,1,1.79,1.52c.14,1.08-.23,1.95-1.44,2.06-1,.08-1.46-.59-1.58-1.47A1.76,1.76,0,0,1,155.84,481.7Z"/><path d="M81.76,497.67c.87-2.28,2.26-2.69,4.37-3.52C85.21,496.62,83.9,497.14,81.76,497.67Z"/><path d="M120,429.09c1,.07,1.61.34,1.63,1.08s-.55,1.09-1.21,1.15c-.85.09-1.67-.17-1.48-1.2C119,429.67,119.71,429.33,120,429.09Z"/><path d="M159.15,498.26a5.4,5.4,0,0,1-.73-1.37c-.13-.51.3-1.05.81-.78a2.6,2.6,0,0,1,1.13,1.39C160.52,498,160.1,498.39,159.15,498.26Z"/><path d="M115.46,450.19l-.33,1a5.36,5.36,0,0,1-1.1-.47,1.3,1.3,0,0,1,.23-.74A5.43,5.43,0,0,1,115.46,450.19Z"/><path d="M174.08,487.94c3,1.58,5.07,2.61,7.07,3.69.89.48,1.92,1.15,1.15,2.28s-1.92.51-2.65-.09C177.91,492.36,175.72,491.34,174.08,487.94Z"/><path d="M186.85,452.57c-1-.2-2.2-.51-1.56-1.83s.71-3.24,2.66-3.16c1.23.05,1.19,1.38,1.18,2.38C189.12,451.45,188.63,452.57,186.85,452.57Z"/><path d="M204.75,471.55c-1.36-.19-2.42-.82-2-1.84s.32-2.82,2.08-2.89c.93,0,1.36.75,1.43,1.64A3.08,3.08,0,0,1,204.75,471.55Z"/><path d="M159,423c-1.61-2.1-1.33-3.77.54-5.06.52-.37,1.52-.55,1.71.12C161.9,420.17,159.73,421.22,159,423Z"/><path d="M185.06,419.34l-1.06-.67c.36-.21.7-.56,1.07-.59s.73.28,1.1.43Z"/><path d="M132,457.21c-.72.25-1-.15-1.06-.63a1.59,1.59,0,0,1,1-1.88c.62-.26.87.22,1,.66A1.64,1.64,0,0,1,132,457.21Z"/><path d="M153.76,489.27c.3,0,.65-.22.87-.11s.24.49.35.75c-.29,0-.64.23-.84.13S153.88,489.55,153.76,489.27Z"/><path d="M107.74,476.83c-.22-.21-.58-.4-.6-.63-.07-.56.32-.84.84-.67a.84.84,0,0,1,.39.71C108.32,476.47,108,476.63,107.74,476.83Z"/><path d="M166.42,123.3a1.65,1.65,0,0,1,1.79,1.52c.14,1.08-.23,2-1.44,2.06-1,.08-1.46-.59-1.59-1.47A1.78,1.78,0,0,1,166.42,123.3Z"/><path d="M92.34,139.27c.87-2.28,2.26-2.69,4.37-3.52C95.79,138.22,94.48,138.75,92.34,139.27Z"/><path d="M130.54,70.7c1,.06,1.61.33,1.64,1.07s-.55,1.09-1.21,1.15c-.85.09-1.67-.17-1.48-1.2C129.57,71.27,130.29,70.93,130.54,70.7Z"/><path d="M169.73,139.87a5.34,5.34,0,0,1-.73-1.38c-.13-.51.3-1.05.81-.78a2.68,2.68,0,0,1,1.13,1.39C171.09,139.57,170.67,140,169.73,139.87Z"/><path d="M126,91.79l-.33,1a5.72,5.72,0,0,1-1.1-.48,1.3,1.3,0,0,1,.23-.74A5.43,5.43,0,0,1,126,91.79Z"/><path d="M184.66,129.54c3,1.58,5.07,2.61,7.07,3.69.89.48,1.92,1.15,1.14,2.28s-1.91.51-2.64-.09C188.49,134,186.29,132.94,184.66,129.54Z"/><path d="M197.43,94.17c-1-.2-2.21-.5-1.56-1.83s.71-3.24,2.66-3.16c1.23,0,1.19,1.38,1.18,2.38C199.7,93.05,199.21,94.17,197.43,94.17Z"/><path d="M215.33,113.15c-1.36-.19-2.42-.82-2-1.84s.31-2.82,2.08-2.89c.92,0,1.36.76,1.43,1.64A3.08,3.08,0,0,1,215.33,113.15Z"/><path d="M169.6,64.55c-1.61-2.1-1.32-3.77.54-5.06.53-.37,1.53-.54,1.72.12C172.48,61.77,170.31,62.82,169.6,64.55Z"/><path d="M195.64,60.94l-1.06-.67c.35-.21.7-.56,1.07-.59s.73.28,1.09.44Z"/><path d="M142.55,98.81c-.72.25-1-.15-1.06-.63a1.57,1.57,0,0,1,1-1.88c.61-.26.87.22,1,.66A1.63,1.63,0,0,1,142.55,98.81Z"/><path d="M164.33,130.87c.3-.05.65-.21.88-.11s.23.49.34.75c-.28.05-.63.23-.84.13S164.46,131.15,164.33,130.87Z"/><path d="M118.32,118.43c-.22-.21-.58-.4-.61-.63-.06-.56.33-.84.85-.67a.81.81,0,0,1,.38.71C118.9,118.07,118.55,118.23,118.32,118.43Z"/><path d="M468.24,277.91a1.65,1.65,0,0,1,1.79,1.52c.14,1.09-.23,2-1.44,2.06-1,.08-1.46-.59-1.59-1.46A1.79,1.79,0,0,1,468.24,277.91Z"/><path d="M394.16,293.88c.87-2.28,2.26-2.69,4.37-3.52C397.61,292.84,396.3,293.36,394.16,293.88Z"/><path d="M432.37,225.31c1,.07,1.61.33,1.63,1.07s-.55,1.09-1.21,1.16c-.85.08-1.67-.18-1.48-1.2C431.39,225.88,432.11,225.55,432.37,225.31Z"/><path d="M471.55,294.48a5.34,5.34,0,0,1-.73-1.38c-.13-.51.3-1.05.81-.77a2.56,2.56,0,0,1,1.13,1.39C472.91,294.19,472.49,294.6,471.55,294.48Z"/><path d="M427.86,246.4l-.33,1a6,6,0,0,1-1.1-.48,1.32,1.32,0,0,1,.23-.74A5.43,5.43,0,0,1,427.86,246.4Z"/><path d="M486.48,284.16c3,1.57,5.07,2.61,7.07,3.69.89.48,1.92,1.14,1.15,2.27s-1.92.52-2.65-.09C490.31,288.58,488.11,287.56,486.48,284.16Z"/><path d="M494.69,247.84c-1-.2-2.2-.51-1.55-1.83s.71-3.25,2.66-3.17c1.22,0,1.19,1.39,1.18,2.38C497,246.71,496.48,247.84,494.69,247.84Z"/><path d="M471.42,219.17c-1.61-2.1-1.32-3.77.54-5.07.53-.36,1.53-.54,1.72.12C474.3,216.38,472.13,217.43,471.42,219.17Z"/><path d="M497.46,215.56l-1.06-.67c.36-.21.7-.56,1.07-.59s.73.27,1.09.43Z"/><path d="M444.37,253.42c-.72.25-1-.14-1.06-.62a1.58,1.58,0,0,1,1-1.88c.62-.26.87.21,1,.66A1.63,1.63,0,0,1,444.37,253.42Z"/><path d="M466.15,285.48c.31-.05.65-.21.88-.11s.23.49.34.75c-.28.06-.63.23-.83.13S466.28,285.76,466.15,285.48Z"/><path d="M420.14,273.05c-.22-.22-.58-.41-.61-.63a.59.59,0,0,1,.85-.67.81.81,0,0,1,.38.71C420.72,272.68,420.37,272.85,420.14,273.05Z"/><path d="M470.62,456.85a1.63,1.63,0,0,1,1.79,1.52c.14,1.08-.23,1.95-1.44,2.06-1,.08-1.46-.59-1.58-1.47A1.76,1.76,0,0,1,470.62,456.85Z"/><path d="M396.54,472.82c.87-2.28,2.26-2.69,4.37-3.52C400,471.77,398.68,472.29,396.54,472.82Z"/><path d="M434.75,404.25c1,.06,1.61.33,1.63,1.07s-.55,1.09-1.21,1.15c-.85.09-1.67-.17-1.48-1.2C433.77,404.82,434.49,404.48,434.75,404.25Z"/><path d="M473.93,473.41a5.4,5.4,0,0,1-.73-1.37c-.13-.51.3-1.05.81-.78a2.63,2.63,0,0,1,1.13,1.39C475.3,473.12,474.88,473.54,473.93,473.41Z"/><path d="M469.52,431.62c-.14.44-.23.71-.32,1a5.46,5.46,0,0,1-1.1-.48,1.23,1.23,0,0,1,.23-.74A5.46,5.46,0,0,1,469.52,431.62Z"/><path d="M488.86,463.09c3,1.58,5.07,2.61,7.07,3.69.89.48,1.92,1.15,1.15,2.28s-1.92.51-2.65-.09C492.69,467.51,490.49,466.49,488.86,463.09Z"/><path d="M473.81,398.1c-1.62-2.1-1.33-3.77.54-5.06.52-.37,1.52-.55,1.71.12C476.68,395.32,474.51,396.37,473.81,398.1Z"/><path d="M492,414.19l-1.06-.67c.36-.21.7-.56,1.07-.59s.73.28,1.09.43Z"/><path d="M417.35,431c-.72.25-1-.15-1.06-.63a1.57,1.57,0,0,1,1-1.88c.61-.26.87.22,1,.66A1.63,1.63,0,0,1,417.35,431Z"/><path d="M468.53,464.42c.31-.05.66-.22.88-.11s.23.49.34.75c-.28.05-.63.23-.83.13S468.66,464.7,468.53,464.42Z"/><path d="M422.52,452c-.22-.21-.58-.4-.6-.63-.07-.56.32-.84.84-.67a.81.81,0,0,1,.38.71C423.1,451.62,422.75,451.78,422.52,452Z"/><path d="M473,112.65a1.63,1.63,0,0,1,1.79,1.51c.14,1.09-.23,2-1.44,2.06-1,.09-1.46-.58-1.59-1.46A1.78,1.78,0,0,1,473,112.65Z"/><path d="M398.9,128.62c.87-2.29,2.26-2.7,4.37-3.53C402.35,127.57,401,128.09,398.9,128.62Z"/><path d="M437.11,60c1,.07,1.61.34,1.63,1.08s-.55,1.09-1.21,1.15c-.85.08-1.67-.18-1.48-1.2C436.13,60.62,436.85,60.28,437.11,60Z"/><path d="M476.29,129.21a5.26,5.26,0,0,1-.73-1.37c-.13-.52.3-1.06.81-.78a2.6,2.6,0,0,1,1.13,1.39C477.65,128.92,477.23,129.34,476.29,129.21Z"/><path d="M432.6,81.13l-.33,1a5.39,5.39,0,0,1-1.1-.48,1.32,1.32,0,0,1,.23-.74A6.89,6.89,0,0,1,432.6,81.13Z"/><path d="M491.22,118.89c3,1.58,5.07,2.61,7.07,3.69.89.48,1.92,1.14,1.15,2.28s-1.92.51-2.65-.1C495.05,123.31,492.85,122.29,491.22,118.89Z"/><path d="M476.16,53.9c-1.61-2.1-1.32-3.77.54-5.06.53-.37,1.53-.55,1.72.11C479,51.11,476.87,52.17,476.16,53.9Z"/><path d="M449.11,88.16c-.72.24-1-.15-1.06-.63a1.59,1.59,0,0,1,1-1.88c.62-.26.87.22,1,.66A1.65,1.65,0,0,1,449.11,88.16Z"/><path d="M470.89,120.22c.31,0,.66-.22.88-.11s.23.48.34.75c-.28,0-.63.23-.83.12S471,120.5,470.89,120.22Z"/><path d="M424.88,107.78c-.22-.22-.58-.4-.61-.63a.59.59,0,0,1,.85-.67.81.81,0,0,1,.38.71C425.46,107.42,425.11,107.58,424.88,107.78Z"/><path d="M286.56,469.53a1.64,1.64,0,0,1,1.79,1.52c.14,1.08-.23,2-1.44,2.06-1,.08-1.46-.59-1.58-1.47A1.77,1.77,0,0,1,286.56,469.53Z"/><path d="M212.48,485.5c.87-2.28,2.26-2.69,4.37-3.52C215.93,484.46,214.62,485,212.48,485.5Z"/><path d="M250.69,416.93c1,.07,1.61.33,1.63,1.07s-.55,1.09-1.21,1.16c-.85.08-1.67-.18-1.48-1.2C249.71,417.5,250.43,417.16,250.69,416.93Z"/><path d="M289.87,486.1a5.67,5.67,0,0,1-.73-1.38c-.13-.51.3-1.05.81-.78a2.63,2.63,0,0,1,1.13,1.39C291.24,485.8,290.81,486.22,289.87,486.1Z"/><path d="M246.18,438l-.33,1a6,6,0,0,1-1.1-.48,1.3,1.3,0,0,1,.23-.74A5.43,5.43,0,0,1,246.18,438Z"/><path d="M304.8,475.77c3,1.58,5.07,2.61,7.07,3.7.89.48,1.92,1.14,1.15,2.27s-1.92.52-2.65-.09C308.63,480.19,306.43,479.18,304.8,475.77Z"/><path d="M317.57,440.41c-1-.2-2.21-.51-1.56-1.84s.71-3.24,2.66-3.16c1.23,0,1.19,1.39,1.18,2.38C319.84,439.28,319.35,440.4,317.57,440.41Z"/><path d="M335.47,459.39c-1.36-.2-2.42-.83-2-1.85s.31-2.82,2.08-2.88c.93,0,1.36.75,1.43,1.63A3.09,3.09,0,0,1,335.47,459.39Z"/><path d="M289.75,410.78c-1.62-2.09-1.33-3.76.54-5.06.52-.36,1.52-.54,1.71.12C292.62,408,290.45,409.05,289.75,410.78Z"/><path d="M315.78,407.18l-1.06-.68c.36-.21.7-.55,1.07-.58s.73.27,1.1.43Z"/><path d="M262.69,445c-.72.25-1-.15-1.06-.62a1.6,1.6,0,0,1,1-1.89c.62-.25.87.22,1,.67A1.64,1.64,0,0,1,262.69,445Z"/><path d="M284.47,477.1c.31-.05.66-.21.88-.11s.23.49.34.75c-.28.06-.63.23-.83.13S284.6,477.38,284.47,477.1Z"/><path d="M238.46,464.67c-.22-.22-.58-.41-.6-.63-.07-.57.32-.85.84-.67a.78.78,0,0,1,.38.7C239,464.3,238.69,464.47,238.46,464.67Z"/><path d="M254.34,215a1.65,1.65,0,0,1,1.8,1.52c.14,1.08-.23,1.95-1.44,2.06-1,.08-1.46-.59-1.59-1.47A1.78,1.78,0,0,1,254.34,215Z"/><path d="M180.26,231c.87-2.28,2.27-2.69,4.38-3.52C183.72,229.92,182.41,230.44,180.26,231Z"/><path d="M218.47,162.4c1,.06,1.61.33,1.64,1.07s-.55,1.09-1.21,1.15c-.85.09-1.67-.17-1.48-1.2C217.5,163,218.21,162.63,218.47,162.4Z"/><path d="M257.65,231.57a6,6,0,0,1-.73-1.38c-.13-.51.3-1.05.82-.78a2.68,2.68,0,0,1,1.13,1.39C259,231.27,258.6,231.69,257.65,231.57Z"/><path d="M214,183.49l-.33,1a5.13,5.13,0,0,1-1.1-.47,1.3,1.3,0,0,1,.23-.74A5.54,5.54,0,0,1,214,183.49Z"/><path d="M272.59,221.24c3,1.58,5.06,2.61,7.07,3.69.89.48,1.92,1.15,1.14,2.28s-1.91.51-2.64-.09C276.42,225.66,274.22,224.64,272.59,221.24Z"/><path d="M285.35,185.87c-1-.2-2.2-.5-1.55-1.83s.71-3.24,2.66-3.16c1.23.05,1.19,1.38,1.18,2.38C287.62,184.75,287.14,185.87,285.35,185.87Z"/><path d="M303.26,204.85c-1.36-.19-2.42-.82-2-1.84s.31-2.82,2.08-2.89c.92,0,1.36.76,1.43,1.64A3.09,3.09,0,0,1,303.26,204.85Z"/><path d="M257.53,156.25c-1.61-2.1-1.32-3.77.54-5.06.53-.37,1.52-.54,1.71.12C260.41,153.47,258.24,154.52,257.53,156.25Z"/><path d="M283.57,152.64l-1.06-.67c.35-.21.7-.56,1.07-.59s.73.28,1.09.44Z"/><path d="M230.48,190.51c-.72.25-1-.15-1.06-.63a1.57,1.57,0,0,1,1-1.88c.61-.26.87.22,1,.66A1.63,1.63,0,0,1,230.48,190.51Z"/><path d="M252.26,222.57c.3,0,.65-.21.87-.11s.24.49.35.75c-.28,0-.63.23-.84.13S252.39,222.85,252.26,222.57Z"/><path d="M206.25,210.13c-.22-.21-.58-.4-.61-.63-.06-.56.33-.84.85-.67a.83.83,0,0,1,.38.71C206.82,209.77,206.47,209.93,206.25,210.13Z"/><path d="M355.39,250.21a1.62,1.62,0,0,1,1.79,1.51c.14,1.09-.23,2-1.44,2.06-1,.09-1.46-.58-1.58-1.46A1.77,1.77,0,0,1,355.39,250.21Z"/><path d="M281.31,266.18c.87-2.29,2.27-2.69,4.38-3.53C284.77,265.13,283.45,265.65,281.31,266.18Z"/><path d="M319.52,197.6c1,.07,1.61.34,1.64,1.08s-.56,1.09-1.21,1.15c-.86.08-1.68-.18-1.49-1.2C318.54,198.18,319.26,197.84,319.52,197.6Z"/><path d="M358.7,266.77a5.58,5.58,0,0,1-.73-1.37c-.13-.52.3-1.06.81-.78a2.6,2.6,0,0,1,1.13,1.39C360.07,266.48,359.65,266.9,358.7,266.77Z"/><path d="M315,218.7c-.15.44-.23.7-.32,1a5.24,5.24,0,0,1-1.11-.48c-.06,0,.15-.74.24-.74A6.18,6.18,0,0,1,315,218.7Z"/><path d="M373.63,256.45c3,1.58,5.07,2.61,7.08,3.69.88.48,1.91,1.14,1.14,2.28s-1.92.51-2.65-.1C377.46,260.87,375.27,259.85,373.63,256.45Z"/><path d="M386.4,221.08c-1-.2-2.2-.51-1.56-1.83s.72-3.25,2.66-3.17c1.23,0,1.2,1.39,1.19,2.38C388.67,220,388.18,221.08,386.4,221.08Z"/><path d="M404.3,240.06c-1.36-.19-2.42-.82-2-1.84s.32-2.83,2.08-2.89c.93,0,1.36.75,1.43,1.63A3.08,3.08,0,0,1,404.3,240.06Z"/><path d="M426.48,376.82c-1.61-2.1-1.32-3.77.54-5.06.53-.37,1.53-.55,1.72.12C429.36,374,427.19,375.09,426.48,376.82Z"/><path d="M478.88,361.4l-1.06-.67a3.16,3.16,0,0,1,1.07-.59c.35,0,.73.28,1.09.44Z"/><path d="M481.05,316c1,.07,1.61.34,1.64,1.08s-.55,1.09-1.21,1.15c-.85.09-1.67-.17-1.48-1.2C480.08,316.57,480.8,316.23,481.05,316Z"/><path d="M476.55,337.09l-.33,1a5.69,5.69,0,0,1-1.1-.47,1.3,1.3,0,0,1,.23-.74A5.43,5.43,0,0,1,476.55,337.09Z"/><path d="M493.06,344.11c-.72.25-1-.15-1.06-.63a1.57,1.57,0,0,1,1-1.88c.61-.26.87.22,1,.66A1.64,1.64,0,0,1,493.06,344.11Z"/><path d="M468.83,363.73c-.22-.21-.58-.4-.61-.63-.06-.56.33-.84.85-.67a.81.81,0,0,1,.38.71C469.41,363.37,469.06,363.53,468.83,363.73Z"/><path d="M358.58,191.46c-1.61-2.1-1.33-3.77.54-5.06.53-.37,1.52-.55,1.71.11C361.45,188.67,359.28,189.73,358.58,191.46Z"/><path d="M384.62,187.85l-1.07-.67c.36-.21.7-.56,1.07-.59s.73.28,1.1.43Z"/><path d="M331.52,225.72c-.72.25-1-.15-1.06-.63a1.58,1.58,0,0,1,1-1.88c.61-.26.86.22,1,.66A1.64,1.64,0,0,1,331.52,225.72Z"/><path d="M353.31,257.78c.3,0,.65-.22.87-.11s.24.49.35.75c-.29.05-.63.23-.84.12S353.43,258.06,353.31,257.78Z"/><path d="M307.29,245.34c-.22-.22-.58-.4-.6-.63-.07-.56.32-.84.84-.67a.84.84,0,0,1,.39.71C307.87,245,307.52,245.14,307.29,245.34Z"/><path d="M372.44,455c-.05-.27-.23-.67-.14-.74a1.27,1.27,0,0,1,.87-.27c.46,0,.53.39.16.67A3.36,3.36,0,0,1,372.44,455Z"/><path d="M15.28,47.9l.55.59a3.71,3.71,0,0,1-.65.29c-.08,0-.31-.23-.3-.27A5.31,5.31,0,0,1,15.28,47.9Z"/><path d="M357.35,89.37c-.27,0-.53-.06-.8-.09.06-.14.11-.4.19-.4a3.52,3.52,0,0,1,.79.07Z"/><path d="M452.63,497.64c-.27.15-.66.56-1,.54-.55,0-.79-.53-.5-1.05a1.23,1.23,0,0,1,.76-.57C452.46,496.46,452.74,496.82,452.63,497.64Z"/></svg>